<svg width="800" height="600" xmlns="http://www.w3.org/2000/svg">

 <g>
  <title>Layer 1</title>
  <g fill="white">
   <g fill="#000000" transform="translate(0 512) scale(0.1 -0.1)">
    <path fill="#dc2626" d="m3775.75183,4709.99185c-500,-42 -969,-226 -1374,-538c-109,-85 -347,-323 -432,-432c-436,-566 -618,-1251 -518,-1950c64,-440 239,-850 519,-1210c81,-105 311,-337 410,-415c563,-442 1238,-630 1940,-539c451,58 890,246 1261,538c97,76 320,299 396,396c292,370 476,804 540,1270c23,169 23,491 0,659c-40,295 -111,528 -241,796c-340,699 -985,1205 -1750,1374c-216,48 -535,69 -751,51zm1391,-1509c75,-37 146,-110 183,-189c23,-49 27,-70 27,-152c0,-87 -3,-101 -33,-165c-31,-66 -71,-108 -770,-807c-690,-690 -741,-739 -804,-768c-127,-59 -270,-48 -382,30c-23,15 -199,187 -392,382c-413,415 -409,410 -409,573c0,87 3,107 26,155c75,158 250,252 411,220c112,-22 148,-48 373,-271l211,-209l569,571c314,314 590,584 614,601c108,76 257,87 376,29z"/>
   </g>
  </g>
 </g>
</svg>