<?xml version="1.0" encoding="UTF-8"?><svg version="1.1" width="24px" height="25px" viewBox="0 0 24.0 25.0" xmlns="http://www.w3.org/2000/svg" xmlns:xlink="http://www.w3.org/1999/xlink"><defs><clipPath id="i0"><path d="M375,0 L375,812 L0,812 L0,0 L375,0 Z"></path></clipPath><clipPath id="i1"><path d="M364,0 C370.627417,-1.21743675e-15 376,5.372583 376,12 L376,343 L0,343 L0,12 C-2.58798134e-15,5.372583 5.372583,-1.12170611e-14 12,0 L364,0 Z"></path></clipPath><clipPath id="i2"><path d="M7.07842712,0 L7.07767966,5.57742712 L12.6568542,5.57842712 L12.6568542,7.07842712 L7.07767966,7.07742712 L7.07842712,12.6568542 L5.57842712,12.6568542 L5.57767966,7.07742712 L0,7.07842712 L0,5.57842712 L5.57767966,5.57742712 L5.57842712,0 L7.07842712,0 Z"></path></clipPath></defs><g transform="translate(-328.0 -492.0)"><g clip-path="url(#i0)"><g transform="translate(0.0 94.0)"><g transform="translate(0.0 375.0)"><g clip-path="url(#i1)"><g transform="translate(328.0 23.949747468333953)"><g transform="translate(11.949747468308034 3.050252531695131) rotate(45.00000000000001)"><g clip-path="url(#i2)"><polygon points="4.54747351e-13,1.8189894e-12 12.6568542,1.8189894e-12 12.6568542,12.6568542 4.54747351e-13,12.6568542 4.54747351e-13,1.8189894e-12" stroke="none" fill="#1D1D1F"></polygon></g></g></g></g></g></g></g></g></svg>